0
SECTION
2
HEADER
9
$ACADVER
1
AC1027
9
$INSUNITS
70
1
0
ENDSEC
0
SECTION
2
TABLES
0
TABLE
2
LAYER
70
4
0
LAYER
2
LAYER1
70
0
62
1
6
CONTINUOUS
0
LAYER
2
MY_LINES
70
0
62
3
6
CONTINUOUS
0
LAYER
2
TEMP_DRAFT
70
0
62
5
6
CONTINUOUS
0
LAYER
2
0
70
0
62
7
6
CONTINUOUS
0
ENDTAB
0
ENDSEC
0
SECTION
2
ENTITIES
0
LWPOLYLINE
8
LAYER1
90
4
70
1
43
0.0
10
100.00
20
100.00
10
400.00
20
100.00
10
400.00
20
400.00
10
100.00
20
400.00
0
LINE
8
MY_LINES
10
100.00
20
100.00
30
0.0
11
400.00
20
400.00
31
0.0
0
TEXT
8
TEMP_DRAFT
10
200.00
20
200.00
30
0.0
40
2.5
1
DRAINAGE BASIN B - NON COMPLIANT LAYER NAMES
0
ENDSEC
0
EOF
