0
SECTION
2
HEADER
9
$ACADVER
1
AC1032
9
$INSUNITS
70
6
0
ENDSEC
0
SECTION
2
TABLES
0
TABLE
2
LAYER
70
2
0
LAYER
2
PROP_BOUNDARY
70
0
62
2
6
CONTINUOUS
0
LAYER
2
0
70
0
62
7
6
CONTINUOUS
0
ENDTAB
0
ENDSEC
0
SECTION
2
ENTITIES
0
LWPOLYLINE
8
PROP_BOUNDARY
90
5
70
1
43
0.0
10
1000.00
20
1000.00
10
1500.00
20
1500.00
10
1500.00
20
1000.00
10
1000.00
20
1500.00
10
1000.00
20
1000.00
0
TEXT
8
PROP_BOUNDARY
10
1250.00
20
1250.00
30
0.0
40
4.0
1
WARNING: BOWTIE SELF-INTERSECTION DETECTED (DUVAL CO. PARCEL B)
0
ENDSEC
0
EOF
