0
SECTION
2
HEADER
9
$ACADVER
1
AC1032
9
$INSUNITS
70
6
0
ENDSEC
0
SECTION
2
TABLES
0
TABLE
2
LAYER
70
5
0
LAYER
2
DESIGN_R/W
70
0
62
3
6
CONTINUOUS
0
LAYER
2
ROAD_EOP_PR
70
0
62
1
6
CONTINUOUS
0
LAYER
2
PROP_BOUNDARY
70
0
62
2
6
CONTINUOUS
0
LAYER
2
ALIGNMENT
70
0
62
4
6
CENTER2
0
LAYER
2
DRAIN_POND_PR
70
0
62
5
6
CONTINUOUS
0
ENDTAB
0
ENDSEC
0
SECTION
2
ENTITIES
0
LWPOLYLINE
8
DESIGN_R/W
90
4
70
1
43
0.0
10
500000.00
20
1500000.00
10
500740.58
20
1500000.00
10
500740.58
20
1500921.20
10
500000.00
20
1500921.20
0
LWPOLYLINE
8
ROAD_EOP_PR
90
4
70
1
43
0.0
10
500050.00
20
1500050.00
10
500690.58
20
1500050.00
10
500690.58
20
1500871.20
10
500050.00
20
1500871.20
0
LINE
8
ALIGNMENT
10
500000.00
20
1500460.60
30
0.0
11
500740.58
20
1500460.60
31
0.0
0
TEXT
8
PROP_BOUNDARY
10
500200.00
20
1500100.00
30
0.0
40
5.0
1
PARCEL 101 - FEE SIMPLE TAKE (6.97 ACRES)
0
ENDSEC
0
EOF
